 http://img853.imageshack.us/img853/6508/evy7ccon.jpg


Genre:Action | Adventure | Drama
Language:English
IMDb:http://www.imdb.com/title/tt1735898/
Source:EXTENDED.720p.BluRay.X264-AMIABLE Thanks!
Encoder:Tony

Format : MPEG-4
Format profile : Base Media
Codec ID : isom
File size : 3.14 GiB
Duration : 2h 11mn
Overall bit rate mode : Variable
Overall bit rate : 3 413 Kbps

Video
ID : 1
Format : AVC
Format/Info : Advanced Video Codec
Format profile : High@L4.1
Format settings, CABAC : Yes
Format settings, ReFrames : 3 frames
Codec ID : avc1
Codec ID/Info : Advanced Video Coding
Duration : 2h 11mn
Bit rate : 3 000 Kbps
Maximum bit rate : 11.8 Mbps
Width : 1 280 pixels
Height : 544 pixels
Display aspect ratio : 2.35:1
Frame rate mode : Constant
Frame rate : 23.976 fps
Color space : YUV
Chroma subsampling : 4:2:0
Bit depth : 8 bits
Scan type : Progressive
Bits/(Pixel*Frame) : 0.180
Stream size : 2.72 GiB (87%)
Writing library : x264

Audio
ID : 2
Format : AAC
Format/Info : Advanced Audio Codec
Format profile : LC
Codec ID : 40
Duration : 2h 11mn
Bit rate mode : Variable
Bit rate : 444 Kbps
Maximum bit rate : 556 Kbps
Channel(s) : 6 channels
Channel positions : Front: L C R, Side: L R, LFE
Sampling rate : 48.0 KHz
Compression mode : Lossy
Stream size : 418 MiB (13%)



Plot:
In a twist to the fairy tale, the Huntsman ordered to take Snow White into the woods to be killed winds up becoming her protector and mentor in a quest to vanquish the Evil Queen.

 
http://img641.imageshack.us/img641/7323/vlcsnap2012090109h36m20.png 
http://img838.imageshack.us/img838/842/vlcsnap2012090109h36m34.png 
http://img109.imageshack.us/img109/3889/vlcsnap2012090109h36m41.png 
http://img145.imageshack.us/img145/3192/vlcsnap2012090109h37m03.png 
http://img109.imageshack.us/img109/4907/vlcsnap2012090109h37m17.png 
http://img145.imageshack.us/img145/6039/vlcsnap2012090109h37m51.png